<svg id="Capa_1" enable-background="new 0 0 512 512" height="512" viewBox="0 0 512 512" width="512" xmlns="http://www.w3.org/2000/svg"><path d="m49.044 192.443c-18.869 0-34.515-17.681-40.013-23.894-5.655-6.391-5.059-16.157 1.332-21.813 6.391-5.655 16.157-5.06 21.813 1.332 10.454 11.814 15.699 13.28 16.64 13.452.629-.4 3.252-2.452 7.062-10.641 3.726-8.006 7.004-18.31 10.474-29.219 4.464-14.034 9.08-28.546 15.384-40.128 9.124-16.767 21.009-25.268 35.324-25.268 32.991 0 48.413 34.256 55.542 62.993 6.678 26.919 7.563 53.39 7.598 54.504.264 8.53-6.438 15.659-14.968 15.923-8.524.255-15.654-6.433-15.923-14.958-.008-.244-.853-24.671-6.801-48.419-2.948-11.767-11.327-39.137-25.448-39.137-1.978 0-5.112 3.501-8.179 9.136-4.892 8.99-9.054 22.072-13.078 34.723-9.153 28.774-17.799 55.953-40.604 60.771-2.082.441-4.138.643-6.155.643z" fill="#fcb143"/><path d="m391.579 30.964 120.421-30.095s-2.337 83.538-49.377 101.455" fill="#fa9801"/><path d="m420.952 60.467 41.671 41.856c26.661-10.158 38.961-41.393 44.617-66.55 0 0-38.055.031-69.393 13.959z" fill="#e5ecf1"/><path d="m292.431 30.964-120.421-30.095s2.337 83.538 49.377 101.455" fill="#fa9801"/><path d="m456.587 348.335-15.741 19.749-62.336 78.191h-158.988l-113.567-66.447 6.191-62.429c-37.808-99.104 20.336-148.305 95.22-170.248 6.748-1.988 13.64-3.74 20.604-5.295 50.788-11.322 105.717-11.744 142.289-7.706 36.675 4.049 62.213 22.571 78.706 47.718 32.738 49.882 29.843 125.816 7.622 166.467z" fill="#fcb143"/><path d="m440.845 368.081-62.336 78.191h-158.988l-113.567-66.447 6.191-62.429c-41.217-108.036 31.606-156.773 115.824-175.543l38.776 37.262s-72.71 188.636 158.308 188.636c5.552 0 10.806.113 15.792.33z" fill="#fa9801"/><path d="m499.297 406.795-103.646 88.41c-13.279 11.332-30.483 16.988-47.893 15.762l-243.72-17.163-69.352 15.02-34.686-131.328 73.678-41.836 146.358-82.043c6.212-3.482 12.939-5.13 19.584-5.13 14.041 0 27.671 7.386 35.026 20.501 10.034 17.894 4.955 40.465-11.765 52.333l-71.649 50.87c17.441 10.044 36.273 17.637 55.97 22.499l95.013 23.426 114.793-69.784c16.4-9.972 37.735-5.408 48.614 10.415 10.508 15.267 7.778 36.015-6.325 48.048z" fill="#d38678"/><path d="m499.297 406.795-103.646 88.41c-13.279 11.332-30.483 16.988-47.893 15.762l-243.72-17.163-69.352 15.02-34.686-131.328 73.678-41.836 146.358-82.043c6.212-3.482 12.939-5.13 19.584-5.13 14.041 0 27.671 7.386 35.026 20.501-14.536-25.59-193.097 89.862-193.097 128.793 0 38.93 206.747 83.239 267.157 73.833 60.42-9.396 97.115-73.267 150.591-64.819z" fill="#c86e57"/><path d="m225.599 323.486c-6.327 0-12.467-3.072-16.215-8.668-8.257-12.329-10.694-24.679-10.793-25.199-.804-4.191 1.942-8.239 6.132-9.044 4.18-.801 8.225 1.932 9.039 6.111.036.175 2.045 9.952 8.462 19.533 1.154 1.723 3.522 2.292 5.391 1.296l9.577-5.108c3.764-2.009 8.445-.584 10.453 3.182 2.008 3.765.584 8.445-3.182 10.453l-9.577 5.108c-2.962 1.58-6.148 2.336-9.287 2.336z" fill="#a64c31"/><path d="m263.058 60.467-41.671 41.856c-26.661-10.158-38.961-41.393-44.617-66.55 0 0 38.055.031 69.393 13.959z" fill="#e5ecf1"/><path d="m448.964 181.868c-3.276 36.942-33.378 66.22-70.815 67.714-33.048 1.319-66.097 1.319-99.145 0-38.652-1.545-69.486-32.708-71.041-71.361-.422-10.364-.618-20.717-.598-31.07 6.748-1.988 13.64-3.74 20.604-5.295 50.788-11.322 105.717-11.744 142.289-7.706 36.674 4.049 62.212 22.571 78.706 47.718z" fill="#fa9801"/><path d="m391.579 30.964c-33.049-1.323-66.098-1.323-99.147 0-38.657 1.547-69.489 32.703-71.044 71.36-.802 19.929-.802 39.858 0 59.786 1.555 38.657 32.388 69.812 71.044 71.36 33.049 1.323 66.098 1.323 99.147 0 38.657-1.547 69.489-32.703 71.044-71.36.802-19.929.802-39.858 0-59.786-1.555-38.657-32.387-69.813-71.044-71.36z" fill="#fcb143"/><path d="m298.64 233.704c-2.071-.072-4.141-.155-6.212-.237-38.652-1.545-69.486-32.698-71.041-71.361-.804-19.924-.804-39.858 0-59.781 1.556-38.663 32.389-69.815 71.041-71.361 2.071-.082 4.141-.165 6.212-.237-13.434 12.434-22.819 38.673-23.457 69.28-.443 21.469-.443 42.948 0 64.417.639 30.607 10.024 56.845 23.457 69.28z" fill="#fa9801"/><path d="m314.772 140.421c6.624-16.596 16.37-27.083 27.238-27.083 10.858 0 20.604 10.487 27.238 27.083v58.834h-54.169" fill="#3c5959"/><path d="m463.216 134.808c-.031 9.096-.227 18.203-.587 27.3-1.556 38.663-32.389 69.815-71.052 71.361-33.048 1.329-66.096 1.329-99.145 0-38.652-1.545-69.486-32.698-71.041-71.361-.371-9.096-.567-18.203-.597-27.3h70.856c27.805 0 50.355 22.54 50.355 50.355 0-27.815 22.551-50.355 50.366-50.355z" fill="#e5ecf1"/><path d="m298.627 233.686c-13.424-12.441-22.801-38.669-23.439-69.262-.204-9.87-.302-19.743-.319-29.616h-54.07c.031 9.096.227 18.203.597 27.3 1.556 38.663 32.389 69.815 71.041 71.361 2.063.082 4.127.144 6.19.217z" fill="#b6c1cc"/><g fill="#394949"><path d="m281.144 91.53c-5.468 0-9.916 6.615-9.916 14.746s4.448 14.745 9.916 14.745 9.916-6.615 9.916-14.745-4.448-14.746-9.916-14.746z"/><path d="m402.866 91.53c-5.468 0-9.916 6.615-9.916 14.746s4.448 14.745 9.916 14.745 9.917-6.615 9.917-14.745-4.45-14.746-9.917-14.746z"/><path d="m402.451 176.099c-3.374 0-6.406-2.255-7.395-5.479-.903-2.945.111-6.263 2.489-8.213 5.335-4.375 13.594.275 12.546 7.106-.574 3.736-3.852 6.586-7.64 6.586z"/><path d="m379.797 200.267c-6.86 0-10.306-8.732-5.244-13.398 2.397-2.21 6.011-2.665 8.886-1.137 2.909 1.546 4.531 4.89 3.964 8.134-.639 3.657-3.886 6.401-7.606 6.401z"/><path d="m411.558 202.286c-6.87 0-10.311-8.752-5.232-13.416 2.287-2.1 5.728-2.626 8.533-1.295 3.033 1.439 4.834 4.769 4.34 8.099-.553 3.735-3.85 6.612-7.641 6.612z"/><path d="m281.559 176.099c-3.302 0-6.285-2.174-7.326-5.3-1.029-3.09.06-6.623 2.669-8.581 5.693-4.272 13.904 1.098 12.153 8.038-.856 3.397-3.991 5.843-7.496 5.843z"/><path d="m304.213 200.267c-6.929 0-10.354-8.903-5.113-13.51 5.125-4.504 13.498-.326 12.8 6.541-.396 3.9-3.756 6.969-7.687 6.969z"/><path d="m272.452 202.286c-3.377 0-6.434-2.301-7.401-5.525-.944-3.145.275-6.639 2.96-8.52 5.727-4.014 13.672 1.396 11.928 8.214-.864 3.376-3.994 5.831-7.487 5.831z"/></g></svg>