<svg width="180" height="48" xmlns="http://www.w3.org/2000/svg">
    <g>
        <title>Paw Icon</title>
        <g stroke="null" id="svg_6">
            <path stroke="null" fill="#ffffff" id="svg_1" d="m35.65831,25.62588c-2.39946,-3.7432 -6.48602,-5.9783 -10.93181,-5.9783s-8.53235,2.2351 -10.93141,5.9783l-5.78181,9.01973c-0.9593,1.49631 -1.40192,3.22531 -1.28028,4.99867c0.12164,1.77376 0.79656,3.42547 1.95154,4.77776c1.15579,1.35107 2.68302,2.27456 4.4165,2.67081c1.73348,0.39625 3.5105,0.22701 5.13861,-0.4886l0.10903,-0.04841c4.09673,-1.76481 8.77808,-1.74854 12.86423,0.04841c1.05408,0.46337 2.17082,0.69771 3.29773,0.69771c0.61268,0 1.22902,-0.06957 1.83967,-0.2087c1.73349,-0.39584 3.26071,-1.31934 4.41691,-2.67081c1.15538,-1.35107 1.83072,-3.00319 1.95276,-4.77735c0.12205,-1.77417 -0.32058,-3.50277 -1.27987,-4.99989l-5.78181,-9.01933zm0,0"/>
            <path stroke="null" fill="#ffffff" id="svg_2" d="m9.57062,25.61408c1.72006,-0.66068 3.02678,-2.04674 3.67933,-3.90309c0.62122,-1.76644 0.57037,-3.7607 -0.14361,-5.61582c-0.71439,-1.8539 -2.01379,-3.3673 -3.65899,-4.26191c-1.7282,-0.93936 -3.62685,-1.09233 -5.34406,-0.43042c-3.45476,1.32829 -5.04016,5.59751 -3.53369,9.51891c1.20339,3.12117 4.01008,5.09142 6.84769,5.09142c0.72456,0 1.45115,-0.12856 2.15333,-0.3991zm0,0"/>
            <path stroke="null" fill="#ffffff" id="svg_3" d="m20.78924,18.54752c4.31886,0 7.83261,-4.00316 7.83261,-8.92372c0,-4.92178 -3.51375,-8.92576 -7.83261,-8.92576c-4.31845,0 -7.8318,4.00398 -7.8318,8.92576c0,4.92056 3.51335,8.92372 7.8318,8.92372zm0,0"/>
            <path stroke="null" fill="#ffffff" id="svg_4" d="m34.3162,20.7399l0.00041,0c0.66435,0.2205 1.34212,0.32587 2.01704,0.32587c3.14964,0 6.21914,-2.29246 7.3904,-5.81557c0.67452,-2.02803 0.63017,-4.1724 -0.1249,-6.0377c-0.79006,-1.95276 -2.25422,-3.37014 -4.12318,-3.99137c-1.86936,-0.62122 -3.89088,-0.36207 -5.69271,0.72903c-1.72128,1.04229 -3.04021,2.73346 -3.71391,4.76149c-1.42186,4.27818 0.48331,8.77686 4.24685,10.02825zm0,0"/>
            <path stroke="null" fill="#ffffff" id="svg_5" d="m50.81094,19.69843l-0.00122,-0.00122c-2.97837,-2.20011 -7.43271,-1.24651 -9.93021,2.12689c-2.49506,3.37503 -2.10492,7.91235 0.86898,10.11409c1.0846,0.80348 2.3661,1.18752 3.6777,1.18752c2.28595,0 4.66426,-1.16678 6.25413,-3.31237c2.49465,-3.37503 2.10492,-7.91235 -0.86939,-10.11491zm0,0"/>
        </g>
        <text font-weight="bold" xml:space="preserve" text-anchor="start" font-family="'Gotham Pro', Arial, sans-serif" font-size="20" id="svg_7" y="33.30625" x="75" stroke-opacity="null" stroke-width="0" stroke="null" fill="#ffffff">LANA PET</text>
    </g>
</svg>