<svg height="480pt" viewBox="0 0 480 480" width="480pt" xmlns="http://www.w3.org/2000/svg"><path d="m440 120h-400c-17.671875 0-32 14.328125-32 32v176c0 17.671875 14.328125 32 32 32h40v-80h320v80h40c17.671875 0 32-14.328125 32-32v-176c0-17.671875-14.328125-32-32-32zm0 0" fill="#9bc9ff"/><g fill="#1e81ce"><path d="m440 112h-32v-104c0-4.417969-3.582031-8-8-8h-320c-4.417969 0-8 3.582031-8 8v104h-32c-22.082031.027344-39.9726562 17.917969-40 40v176c.0273438 22.082031 17.917969 39.972656 40 40h32v104c0 4.417969 3.582031 8 8 8h320c4.417969 0 8-3.582031 8-8v-104h32c22.082031-.027344 39.972656-17.917969 40-40v-176c-.027344-22.082031-17.917969-39.972656-40-40zm-352-96h304v96h-304zm304 448h-304v-176h304zm72-136c0 13.253906-10.746094 24-24 24h-32v-72c0-4.417969-3.582031-8-8-8h-320c-4.417969 0-8 3.582031-8 8v72h-32c-13.253906 0-24-10.746094-24-24v-176c0-13.253906 10.746094-24 24-24h400c13.253906 0 24 10.746094 24 24zm0 0"/><path d="m336 336h-192c-4.417969 0-8 3.582031-8 8s3.582031 8 8 8h192c4.417969 0 8-3.582031 8-8s-3.582031-8-8-8zm0 0"/><path d="m336 416h-192c-4.417969 0-8-3.582031-8-8s3.582031-8 8-8h192c4.417969 0 8 3.582031 8 8s-3.582031 8-8 8zm0 0"/></g></svg>