<svg id="Layer_1" enable-background="new 0 0 511.071 511.071" height="512" viewBox="0 0 511.071 511.071" width="512" xmlns="http://www.w3.org/2000/svg"><g><path d="m79.535 254.535c0-38.66 31.34-70 70-70h-60c-92.876 3.698-92.806 136.336 0 140h60c-38.66 0-70-31.34-70-70z" fill="#cee1f2"/><path d="m345.535 391.535v30c-4.958 119.426-175.086 119.334-180 0v-30c1.056-26.536 38.953-26.516 40 0v30c2.754 66.348 97.271 66.297 100 0v-30c1.057-26.536 38.954-26.516 40 0zm-256-187h50c26.536-1.056 26.516-38.953 0-40h-50c-119.426 4.958-119.334 175.086 0 180h50c26.536-1.056 26.516-38.953 0-40h-50c-66.348-2.754-66.297-97.27 0-100zm96-71c11.046 0 20-8.954 20-20v-24c2.754-66.348 97.27-66.297 100 0v24c1.056 26.536 38.953 26.516 40 0v-24c-4.958-119.426-175.086-119.334-180 0v24c0 11.046 8.954 20 20 20zm236 31h-51c-26.536 1.056-26.516 38.953 0 40h51c66.348 2.754 66.297 97.271 0 100h-56c-26.536 1.056-26.516 38.953 0 40h56c119.427-4.958 119.335-175.086 0-180z" fill="#0023c4"/><path d="m254.949 346.535h-.036zm-.414-106c-25.844 0-55 65.836-55 81.74 0 23.77 24.359 24.26 55.396 24.26 31.036 0 54.605-.49 54.605-24.26-.001-15.49-29.156-81.74-55.001-81.74zm-51.513 5.871c-5.393-32.225-48.717-24.914-42.997 7.326 7.386 35.884 48.07 29.021 42.997-7.326zm129.711-21.547c-29.928-5.015-35.905 45.704-8.891 51.428 11.873 2.023 23.605-8.523 26.204-23.555s-5.44-25.85-17.313-27.873zm-46.528-9.417c11.771 1.238 22.581-10.028 24.146-25.164 1.564-15.136-7.022-25.382-18.793-26.621-29.746-3.006-32.129 47.919-5.353 51.785zm-62.34 0c26.789-3.88 24.38-54.795-5.353-51.785-11.771 1.238-20.357 11.484-18.793 26.62 1.565 15.137 12.376 26.404 24.146 25.165z" fill="#ff5cf4"/></g></svg>